<?xml version="1.0" standalone="no"?>
<!DOCTYPE svg PUBLIC "-//W3C//DTD SVG 20010904//EN"
 "http://www.w3.org/TR/2001/REC-SVG-20010904/DTD/svg10.dtd">
<svg version="1.0" xmlns="http://www.w3.org/2000/svg"
 width="665.000000pt" height="481.000000pt" viewBox="0 0 665.000000 481.000000"
 preserveAspectRatio="xMidYMid meet">

<g transform="translate(0.000000,481.000000) scale(0.100000,-0.100000)"
fill="#000000" stroke="none">
<path d="M1490 4431 c-67 -21 -98 -37 -128 -65 -20 -17 -33 -20 -90 -18 -111
6 -214 -46 -237 -117 -4 -14 -21 -23 -57 -30 -108 -24 -211 -106 -236 -189
-13 -43 -14 -112 -3 -152 6 -21 1 -31 -35 -63 -132 -117 -103 -291 63 -377 30
-15 45 -31 53 -55 15 -46 78 -136 117 -169 54 -45 140 -78 217 -84 68 -5 73
-7 105 -44 66 -77 158 -103 332 -95 90 4 121 2 129 -8 6 -7 34 -23 63 -36 45
-21 68 -24 177 -24 115 0 130 2 182 27 32 15 69 38 82 51 21 21 36 25 116 29
58 4 95 10 100 18 4 7 13 9 19 6 6 -4 11 0 11 11 0 14 2 15 9 5 6 -11 10 -10
15 3 3 10 12 15 21 11 9 -3 15 0 15 9 0 8 5 15 11 15 5 0 7 -5 3 -12 -5 -7 -3
-8 5 -3 8 4 9 11 4 16 -5 5 -26 1 -50 -11 -58 -28 -128 -42 -200 -39 -58 2
-64 0 -92 -30 -97 -103 -347 -116 -469 -24 -32 24 -35 25 -99 13 -102 -20
-217 -7 -293 31 -57 30 -90 66 -90 101 0 10 -23 13 -88 13 -103 0 -155 20
-228 87 -44 40 -104 143 -104 178 0 9 -19 22 -49 33 -57 20 -97 57 -122 112
-24 53 -24 99 2 153 19 37 77 93 110 104 6 2 4 18 -6 40 -59 142 49 297 225
323 41 6 47 11 72 55 38 68 90 92 198 89 74 -2 83 0 108 23 15 14 47 36 72 49
40 21 58 24 170 24 115 0 130 -2 182 -27 47 -22 59 -24 68 -13 6 8 31 22 56
31 55 21 151 14 195 -13 30 -20 30 -20 76 4 84 42 175 29 241 -34 44 -41 48
-43 108 -43 78 0 108 -11 159 -59 30 -29 54 -41 98 -50 101 -22 167 -102 167
-202 0 -43 5 -57 30 -85 54 -62 74 -112 74 -189 0 -53 -6 -80 -23 -113 -33
-63 -84 -116 -145 -148 -57 -30 -58 -32 -68 -144 0 -8 -5 -17 -9 -20 -4 -3 -4
-12 1 -20 8 -13 10 -12 10 3 0 9 4 17 9 17 12 0 31 56 31 91 0 22 9 32 54 57
62 36 120 98 149 162 42 92 21 226 -48 308 -21 25 -28 46 -31 89 -3 30 -11 71
-20 89 -20 42 -98 114 -123 114 -11 0 -22 4 -25 9 -4 5 -24 12 -45 16 -27 4
-45 15 -56 32 -26 39 -109 73 -181 73 -53 0 -64 3 -85 26 -36 40 -116 74 -172
74 -27 0 -70 -9 -98 -21 -48 -21 -50 -21 -86 -3 -64 30 -142 31 -208 0 l-56
-25 -74 24 c-90 31 -202 33 -285 6z"/>
<path d="M3104 3449 c-18 -5 -46 -25 -63 -44 -55 -63 -39 -168 32 -210 38 -22
109 -23 143 0 131 86 38 296 -112 254z m96 -35 c104 -62 62 -214 -61 -214 -33
0 -47 6 -75 34 -29 29 -34 41 -34 79 0 92 92 147 170 101z"/>
<path d="M2770 3232 c0 -9 -7 -13 -19 -9 -11 3 -22 -1 -25 -8 -6 -16 22 -13
53 7 25 15 27 25 6 25 -8 0 -15 -7 -15 -15z"/>
<path d="M3312 3215 c-38 -17 -66 -71 -56 -110 9 -34 60 -75 94 -75 36 0 86
41 93 77 8 44 -17 92 -57 108 -41 18 -33 18 -74 0z m88 -35 c24 -24 27 -82 4
-104 -55 -55 -152 6 -124 78 18 47 84 62 120 26z"/>
<path d="M2630 3202 c0 -5 -15 -26 -34 -48 -30 -35 -32 -41 -18 -54 14 -13 15
-12 10 2 -5 11 6 27 34 50 23 18 45 32 49 31 5 -2 6 4 3 12 -6 16 -44 21 -44
7z"/>
<path d="M4538 3163 c6 -2 18 -2 25 0 6 3 1 5 -13 5 -14 0 -19 -2 -12 -5z"/>
<path d="M4675 3163 c136 -18 282 -99 357 -198 21 -28 39 -42 49 -39 31 9 187
-175 215 -256 9 -25 13 -29 14 -14 0 31 -53 127 -101 186 -43 51 -129 117
-129 98 0 -6 -29 21 -65 59 -92 97 -245 174 -340 169 l-30 -1 30 -4z"/>
<path d="M4234 3018 l-19 -23 23 19 c12 11 22 21 22 23 0 8 -8 2 -26 -19z"/>
<path d="M3430 3010 c-22 -22 -25 -46 -10 -70 7 -11 10 -8 10 16 0 17 7 37 14
44 21 16 56 9 72 -15 11 -17 11 -25 -1 -49 -17 -33 -12 -47 10 -25 26 26 28
63 5 92 -26 33 -71 36 -100 7z"/>
<path d="M4133 2874 c-24 -52 -57 -173 -50 -180 2 -2 21 50 43 116 22 66 38
120 36 120 -2 0 -15 -25 -29 -56z"/>
<path d="M4288 2923 c7 -3 16 -2 19 1 4 3 -2 6 -13 5 -11 0 -14 -3 -6 -6z"/>
<path d="M4515 2910 c-34 -6 -36 -7 -10 -8 17 0 48 3 70 7 33 7 35 9 10 8 -16
0 -48 -3 -70 -7z"/>
<path d="M3455 2900 c3 -5 10 -10 16 -10 5 0 9 5 9 10 0 6 -7 10 -16 10 -8 0
-12 -4 -9 -10z"/>
<path d="M4395 2835 c33 -16 91 -21 65 -6 -8 5 -33 11 -55 14 l-40 5 30 -13z"/>
<path d="M5072 2810 c0 -14 2 -19 5 -12 2 6 2 18 0 25 -3 6 -5 1 -5 -13z"/>
<path d="M4346 2763 c50 -15 72 -15 107 0 25 11 18 12 -59 12 -83 0 -86 0 -48
-12z"/>
<path d="M4018 2663 c-24 -60 -25 -64 -6 -45 16 16 43 101 34 109 -1 2 -14
-27 -28 -64z"/>
<path d="M4985 2670 c-4 -6 1 -22 9 -35 22 -33 28 -32 11 2 -8 15 -12 30 -9
35 3 4 3 8 0 8 -3 0 -8 -5 -11 -10z"/>
<path d="M4240 2646 c0 -2 8 -10 18 -17 15 -13 16 -12 3 4 -13 16 -21 21 -21
13z"/>
<path d="M5313 2585 c0 -27 2 -38 4 -22 2 15 2 37 0 50 -2 12 -4 0 -4 -28z"/>
<path d="M4128 2603 c7 -3 16 -2 19 1 4 3 -2 6 -13 5 -11 0 -14 -3 -6 -6z"/>
<path d="M4270 2595 c0 -10 -5 -14 -12 -10 -7 4 -5 0 5 -8 16 -13 18 -25 13
-74 -4 -39 -3 -52 3 -38 13 27 13 132 1 140 -5 3 -10 -1 -10 -10z"/>
<path d="M4488 2603 c7 -3 16 -2 19 1 4 3 -2 6 -13 5 -11 0 -14 -3 -6 -6z"/>
<path d="M4438 2593 c6 -2 18 -2 25 0 6 3 1 5 -13 5 -14 0 -19 -2 -12 -5z"/>
<path d="M5100 2599 c0 -4 16 -31 36 -60 39 -58 49 -79 70 -149 l14 -45 -6 50
c-3 30 -18 70 -35 100 -32 53 -79 114 -79 104z"/>
<path d="M3981 2552 c-1 -8 13 -28 31 -45 l31 -32 -23 -60 c-14 -37 -24 -85
-26 -125 l-2 -65 7 65 c5 36 18 88 31 116 25 57 22 99 -9 109 -10 3 -23 15
-29 28 -6 12 -11 16 -11 9z"/>
<path d="M4036 2552 c-2 -4 -1 -14 5 -22 7 -12 9 -10 9 8 0 23 -5 28 -14 14z"/>
<path d="M4188 2531 c33 -21 72 -28 72 -12 0 4 -15 11 -32 14 -18 3 -42 8 -53
12 -11 4 -5 -2 13 -14z"/>
<path d="M4473 2543 c9 -2 25 -2 35 0 9 3 1 5 -18 5 -19 0 -27 -2 -17 -5z"/>
<path d="M5221 2549 c-1 -10 50 -132 82 -194 16 -33 41 -89 53 -125 13 -36 24
-55 24 -43 0 13 -11 52 -25 88 -15 40 -23 78 -20 98 4 27 4 28 -3 7 -8 -23
-13 -16 -60 75 -28 55 -51 97 -51 94z"/>
<path d="M4104 2505 c-3 -8 -3 -19 1 -25 10 -16 53 -12 63 6 6 11 11 13 16 5
8 -13 26 -15 26 -2 0 5 -20 14 -44 20 -56 14 -56 14 -62 -4z"/>
<path d="M4400 2512 c0 -7 9 -22 19 -33 17 -19 19 -19 18 -3 -3 26 29 30 36 4
6 -22 36 -27 54 -9 8 8 17 8 31 0 11 -6 27 -11 34 -10 9 0 9 2 -2 7 -8 4 -27
15 -43 26 -21 14 -39 17 -77 14 -27 -3 -54 0 -60 6 -7 7 -10 6 -10 -2z"/>
<path d="M5323 2465 c0 -33 2 -45 4 -27 2 18 2 45 0 60 -2 15 -4 0 -4 -33z"/>
<path d="M5012 2488 c-18 -11 -32 -24 -32 -30 0 -5 14 2 31 16 28 24 49 27 49
6 0 -4 12 -21 28 -37 45 -49 74 -120 88 -217 l13 -91 -4 90 c-2 56 -1 81 5 65
4 -14 9 -56 10 -95 1 -38 6 -97 10 -130 6 -44 8 -25 4 70 -4 141 -19 218 -36
194 -7 -10 -8 -8 -5 9 3 13 3 21 0 18 -5 -5 -51 57 -77 103 -5 9 -19 24 -31
33 -20 15 -23 15 -53 -4z"/>
<path d="M5070 2410 c-6 -11 -8 -20 -6 -20 3 0 10 9 16 20 6 11 8 20 6 20 -3
0 -10 -9 -16 -20z"/>
<path d="M5238 2273 c4 -177 17 -259 50 -313 l27 -45 7 70 c7 69 -6 146 -32
185 -14 21 -12 9 5 -40 17 -47 21 -180 6 -164 -21 21 -41 130 -40 224 1 77
-15 210 -25 210 -1 0 0 -57 2 -127z"/>
<path d="M5281 2327 c-1 -23 62 -153 67 -138 2 6 -10 35 -26 64 -16 29 -32 61
-35 72 -4 18 -5 18 -6 2z"/>
<path d="M5015 2284 c-4 -22 -2 -41 4 -47 8 -8 11 3 11 36 0 56 -5 60 -15 11z"/>
<path d="M4212 2275 c0 -16 2 -22 5 -12 2 9 2 23 0 30 -3 6 -5 -1 -5 -18z"/>
<path d="M4375 2270 c-4 -6 6 -10 24 -10 18 0 34 -7 40 -17 6 -10 10 -13 10
-8 0 33 -58 61 -74 35z"/>
<path d="M5106 2223 c-6 -14 -5 -15 5 -6 7 7 10 15 7 18 -3 3 -9 -2 -12 -12z"/>
<path d="M4161 2218 c-1 -9 5 -20 12 -25 20 -12 47 -14 47 -2 0 7 -9 9 -21 6
-14 -4 -23 1 -29 16 -7 17 -9 18 -9 5z"/>
<path d="M4001 2204 c0 -11 3 -14 6 -6 3 7 2 16 -1 19 -3 4 -6 -2 -5 -13z"/>
<path d="M4335 2184 c-30 -19 -34 -24 -15 -19 14 4 38 10 53 13 15 4 28 12 28
17 0 19 -26 15 -66 -11z"/>
<path d="M4480 2180 c0 -18 68 -80 88 -80 11 0 6 7 -14 19 -17 10 -40 31 -52
46 -12 15 -22 22 -22 15z"/>
<path d="M5076 2135 c-22 -13 -59 -26 -83 -30 -24 -3 -46 -12 -48 -18 -2 -7
-10 -33 -18 -59 -18 -59 -12 -61 14 -5 14 29 19 34 14 15 -3 -16 -2 -28 3 -28
5 0 5 -21 1 -47 -4 -27 -8 -72 -8 -101 -1 -57 -8 -75 -53 -137 l-30 -40 40 43
c42 45 97 141 86 151 -4 3 -9 0 -11 -6 -11 -31 -18 -8 -15 47 2 33 8 58 13 55
5 -4 5 3 1 16 -5 12 -4 39 2 60 9 34 14 39 38 39 18 0 41 12 66 35 43 40 41
42 -12 10z"/>
<path d="M5383 2115 c0 -22 2 -30 4 -17 2 12 2 30 0 40 -3 9 -5 -1 -4 -23z"/>
<path d="M4021 2124 c0 -11 3 -14 6 -6 3 7 2 16 -1 19 -3 4 -6 -2 -5 -13z"/>
<path d="M4075 2063 c-38 -49 -61 -116 -69 -198 l-5 -50 12 58 c7 32 16 55 20
51 4 -5 5 -1 2 8 -9 23 30 107 67 146 18 17 27 32 20 32 -6 0 -27 -21 -47 -47z"/>
<path d="M4032 2075 c0 -16 2 -22 5 -12 2 9 2 23 0 30 -3 6 -5 -1 -5 -18z"/>
<path d="M4396 2092 c-2 -4 7 -9 22 -10 21 -1 24 0 12 8 -18 12 -27 12 -34 2z"/>
<path d="M4554 2047 c20 -27 36 -55 36 -62 0 -8 4 -16 9 -19 11 -7 -7 76 -20
89 -5 5 -9 5 -9 0 0 -5 -12 2 -26 16 -20 18 -18 12 10 -24z"/>
<path d="M4450 2076 c0 -3 9 -10 20 -16 11 -6 20 -8 20 -6 0 3 -9 10 -20 16
-11 6 -20 8 -20 6z"/>
<path d="M5113 2030 c0 -25 2 -35 4 -22 2 12 2 32 0 45 -2 12 -4 2 -4 -23z"/>
<path d="M4284 2036 c11 -9 29 -16 40 -15 17 1 16 2 -6 9 -14 4 -32 11 -40 15
-7 3 -4 -1 6 -9z"/>
<path d="M4220 2022 c0 -5 11 -14 25 -20 28 -13 32 -8 11 14 -16 15 -36 19
-36 6z"/>
<path d="M4355 2020 c-3 -5 -15 -10 -25 -10 -10 0 -21 -4 -24 -9 -6 -10 27 -5
59 9 11 5 29 11 40 13 12 3 8 5 -12 6 -17 0 -35 -3 -38 -9z"/>
<path d="M4144 1986 c-24 -24 -34 -43 -33 -62 l1 -29 15 35 c8 19 26 47 41 63
37 39 16 33 -24 -7z"/>
<path d="M4448 2013 c7 -3 16 -2 19 1 4 3 -2 6 -13 5 -11 0 -14 -3 -6 -6z"/>
<path d="M4209 1971 c13 -12 35 -21 50 -20 l26 1 -26 7 c-14 5 -36 14 -50 20
l-24 12 24 -20z"/>
<path d="M4420 1980 c-9 -6 -10 -10 -3 -10 6 0 15 5 18 10 8 12 4 12 -15 0z"/>
<path d="M5351 1974 c0 -11 3 -14 6 -6 3 7 2 16 -1 19 -3 4 -6 -2 -5 -13z"/>
<path d="M5121 1972 c-1 -7 -6 -10 -12 -6 -13 8 33 -76 68 -124 29 -39 56 -57
122 -83 71 -27 64 -15 -12 19 -74 34 -127 90 -150 160 -9 26 -16 41 -16 34z"/>
<path d="M4298 1953 c6 -2 18 -2 25 0 6 3 1 5 -13 5 -14 0 -19 -2 -12 -5z"/>
<path d="M5050 1954 c0 -5 14 -25 31 -44 l30 -35 -27 40 c-16 22 -29 42 -31
44 -2 2 -3 0 -3 -5z"/>
<path d="M5341 1924 c0 -11 3 -14 6 -6 3 7 2 16 -1 19 -3 4 -6 -2 -5 -13z"/>
<path d="M4531 1879 c-1 -51 22 -130 52 -172 31 -45 30 -25 -4 47 -17 37 -35
90 -39 119 l-8 52 -1 -46z"/>
<path d="M4581 1863 c-1 -41 4 -57 22 -75 12 -13 15 -15 7 -5 -8 10 -18 44
-21 76 l-6 56 -2 -52z"/>
<path d="M5015 1821 c-1 -59 -6 -86 -23 -118 -26 -49 -28 -60 -8 -44 21 17 46
97 46 145 l0 40 53 -50 c50 -49 144 -121 256 -197 38 -27 63 -37 90 -36 40 1
35 4 -21 14 -40 6 -132 77 -120 91 4 4 2 4 -5 0 -7 -4 -42 15 -83 44 -72 53
-83 64 -52 53 18 -6 17 -5 -38 42 l-35 30 29 -32 c17 -18 25 -33 20 -33 -13 0
-67 57 -91 96 l-18 31 0 -76z"/>
<path d="M5351 1882 c-1 -14 27 -72 35 -72 2 0 -2 12 -9 28 -8 15 -17 34 -20
42 -4 10 -6 11 -6 2z"/>
<path d="M4061 1827 c-1 -54 22 -137 35 -124 3 3 0 16 -7 29 -7 12 -16 52 -19
88 l-7 65 -2 -58z"/>
<path d="M4651 1829 c0 -30 4 -63 8 -74 5 -11 6 10 3 50 -6 85 -12 98 -11 24z"/>
<path d="M4721 1840 c-2 -46 20 -100 54 -134 22 -23 30 -37 22 -40 -7 -3 -1
-3 12 0 14 4 21 2 18 -3 -4 -6 5 -15 20 -22 35 -16 40 -7 8 16 -87 61 -110 91
-125 166 -5 27 -8 33 -9 17z"/>
<path d="M4161 1834 c0 -11 3 -14 6 -6 3 7 2 16 -1 19 -3 4 -6 -2 -5 -13z"/>
<path d="M4779 1833 c-13 -16 -12 -17 4 -4 16 13 21 21 13 21 -2 0 -10 -8 -17
-17z"/>
<path d="M4231 1824 c0 -11 3 -14 6 -6 3 7 2 16 -1 19 -3 4 -6 -2 -5 -13z"/>
<path d="M4433 1803 c1 -18 6 -33 10 -33 5 0 5 -4 2 -10 -3 -5 -1 -10 5 -10 6
0 9 -4 6 -9 -3 -5 0 -11 8 -14 11 -5 10 3 -4 36 -10 23 -20 49 -23 57 -3 8 -4
0 -4 -17z"/>
<path d="M4271 1807 c-1 -21 25 -87 34 -87 3 0 3 5 -1 11 -4 7 -13 30 -20 53
-7 23 -13 33 -13 23z"/>
<path d="M4092 1790 c0 -14 2 -19 5 -12 2 6 2 18 0 25 -3 6 -5 1 -5 -13z"/>
<path d="M4172 1770 c0 -14 2 -19 5 -12 2 6 2 18 0 25 -3 6 -5 1 -5 -13z"/>
<path d="M4011 1764 c0 -11 3 -14 6 -6 3 7 2 16 -1 19 -3 4 -6 -2 -5 -13z"/>
<path d="M4222 1755 c0 -16 2 -22 5 -12 2 9 2 23 0 30 -3 6 -5 -1 -5 -18z"/>
<path d="M5420 1775 c0 -7 81 -57 85 -53 2 2 -16 16 -40 31 -25 14 -45 24 -45
22z"/>
<path d="M5374 1742 c18 -19 43 -34 65 -38 20 -4 44 -14 54 -22 16 -15 17 -14
11 1 -3 10 -18 20 -33 23 -52 12 -62 16 -94 42 l-32 26 29 -32z"/>
<path d="M4390 1746 c0 -11 30 -66 36 -66 2 0 -3 15 -12 33 -19 36 -24 44 -24
33z"/>
<path d="M4191 1724 c0 -11 3 -14 6 -6 3 7 2 16 -1 19 -3 4 -6 -2 -5 -13z"/>
<path d="M4715 1710 c10 -11 20 -20 23 -20 3 0 -3 9 -13 20 -10 11 -20 20 -23
20 -3 0 3 -9 13 -20z"/>
<path d="M4020 1711 c0 -7 25 -70 55 -140 30 -70 55 -135 55 -145 0 -9 5 -16
11 -16 6 0 7 9 3 23 -4 12 -8 36 -9 54 -1 17 -6 38 -12 45 -6 7 -32 53 -57
103 -25 49 -46 83 -46 76z m110 -216 c0 -5 -5 -3 -10 5 -5 8 -10 20 -10 25 0
6 5 3 10 -5 5 -8 10 -19 10 -25z"/>
<path d="M4212 1700 c0 -14 2 -19 5 -12 2 6 2 18 0 25 -3 6 -5 1 -5 -13z"/>
<path d="M4231 1694 c0 -11 3 -14 6 -6 3 7 2 16 -1 19 -3 4 -6 -2 -5 -13z"/>
<path d="M5288 1703 c7 -3 16 -2 19 1 4 3 -2 6 -13 5 -11 0 -14 -3 -6 -6z"/>
<path d="M5345 1683 c17 -9 48 -30 70 -47 22 -17 33 -22 25 -12 -18 23 -99 76
-114 76 -6 -1 3 -8 19 -17z"/>
<path d="M3882 1611 c-62 -42 -122 -88 -135 -101 -16 -17 -12 -16 18 7 22 16
63 43 90 58 72 41 133 85 139 101 3 8 4 14 3 13 -1 0 -53 -35 -115 -78z"/>
<path d="M4220 1659 c0 -29 51 -113 98 -161 25 -27 50 -48 53 -48 4 0 -15 23
-43 52 -28 29 -64 79 -79 113 -16 33 -29 53 -29 44z"/>
<path d="M5440 1645 c13 -14 26 -25 28 -25 3 0 -5 11 -18 25 -13 14 -26 25
-28 25 -3 0 5 -11 18 -25z"/>
<path d="M4400 1631 c5 -11 15 -23 21 -27 6 -3 3 5 -6 20 -20 30 -30 35 -15 7z"/>
<path d="M4704 1616 c11 -9 27 -16 35 -15 14 0 14 1 1 6 -8 3 -24 10 -35 15
-20 9 -20 9 -1 -6z"/>
<path d="M5506 1610 c12 -14 24 -32 27 -40 5 -13 6 -13 6 1 1 8 -11 26 -26 40
l-28 24 21 -25z"/>
<path d="M4798 1608 c5 -5 16 -8 23 -6 8 3 3 7 -10 11 -17 4 -21 3 -13 -5z"/>
<path d="M4913 1603 c9 -2 23 -2 30 0 6 3 -1 5 -18 5 -16 0 -22 -2 -12 -5z"/>
<path d="M4440 1575 c7 -9 27 -25 44 -37 l31 -21 -34 36 c-34 36 -67 53 -41
22z"/>
<path d="M4924 1531 c5 -7 -5 -12 -26 -12 l-33 -2 30 -4 c50 -6 85 -24 100
-52 8 -14 14 -21 15 -14 0 15 -47 71 -72 84 -15 8 -19 8 -14 0z"/>
<path d="M4036 1365 c-16 -308 2 -425 94 -610 72 -144 100 -172 36 -35 -30 63
-66 153 -81 200 -27 81 -28 97 -34 350 l-6 265 -9 -170z"/>
<path d="M5257 1488 c-4 -15 -37 -96 -73 -180 -74 -172 -144 -346 -143 -356 1
-13 70 131 124 258 62 148 108 277 102 293 -2 7 -7 0 -10 -15z"/>
<path d="M5596 1453 c34 -33 90 -77 125 -98 35 -21 83 -56 107 -79 62 -59 163
-198 216 -296 25 -47 46 -79 46 -72 0 53 -208 358 -278 407 -20 14 -71 48
-112 75 -41 28 -95 66 -120 86 -35 28 -31 23 16 -23z"/>
<path d="M4600 1496 c0 -2 7 -7 16 -10 8 -3 12 -2 9 4 -6 10 -25 14 -25 6z"/>
<path d="M4833 1473 c9 -2 23 -2 30 0 6 3 -1 5 -18 5 -16 0 -22 -2 -12 -5z"/>
<path d="M4685 1460 c17 -3 53 -3 80 0 44 6 40 7 -30 7 -51 0 -69 -2 -50 -7z"/>
<path d="M3540 1301 c-74 -82 -144 -164 -154 -183 -24 -41 -18 -36 30 27 20
28 80 97 133 155 111 121 136 150 130 150 -3 0 -65 -67 -139 -149z"/>
<path d="M4195 1427 c10 -16 53 -51 94 -79 42 -28 94 -67 116 -87 22 -20 34
-29 28 -21 -18 20 -16 33 5 26 15 -5 14 -4 -2 9 -10 8 -22 12 -26 10 -5 -3
-10 2 -14 10 -3 8 -10 15 -15 15 -17 0 -124 70 -165 109 -35 33 -37 33 -21 8z"/>
<path d="M3711 1354 c-1 -106 18 -213 61 -332 35 -96 50 -104 19 -10 -40 122
-62 229 -70 331 l-8 102 -2 -91z"/>
<path d="M5306 1305 c4 -103 11 -151 34 -230 35 -122 40 -98 5 29 -13 50 -28
145 -34 211 l-10 120 5 -130z"/>
<path d="M4788 1393 c23 -2 59 -2 80 0 20 2 1 4 -43 4 -44 0 -61 -2 -37 -4z"/>
<path d="M4921 1387 c2 -2 18 -11 34 -21 l30 -17 -24 20 c-13 12 -28 21 -34
21 -6 0 -8 -1 -6 -3z"/>
<path d="M4206 1298 c10 -21 20 -36 22 -33 3 3 15 -3 26 -12 12 -10 5 0 -14
22 -19 22 -39 45 -43 50 -5 6 -1 -7 9 -27z"/>
<path d="M4798 1313 c7 -3 16 -2 19 1 4 3 -2 6 -13 5 -11 0 -14 -3 -6 -6z"/>
<path d="M4593 1303 c9 -2 23 -2 30 0 6 3 -1 5 -18 5 -16 0 -22 -2 -12 -5z"/>
<path d="M4855 1298 c11 -6 29 -18 40 -27 12 -9 8 -4 -7 12 -16 15 -34 27 -41
27 -6 0 -3 -6 8 -12z"/>
<path d="M4682 1286 c21 -8 50 -22 65 -32 22 -14 25 -14 15 -2 -16 20 -74 48
-99 48 -10 -1 -1 -7 19 -14z"/>
<path d="M4946 1269 c22 -43 59 -79 81 -79 12 0 8 6 -15 20 -18 11 -42 36 -53
55 -26 44 -35 46 -13 4z"/>
<path d="M4482 1251 c9 -6 54 -16 100 -21 46 -6 90 -13 98 -16 11 -4 12 -2 4
6 -6 6 -49 15 -95 20 -46 5 -93 11 -104 15 -18 6 -18 5 -3 -4z"/>
<path d="M4236 1230 c24 -88 88 -166 144 -175 l35 -6 -40 21 c-54 28 -68 44
-110 120 -20 36 -33 54 -29 40z"/>
<path d="M4713 1163 c9 -2 23 -2 30 0 6 3 -1 5 -18 5 -16 0 -22 -2 -12 -5z"/>
<path d="M4500 1156 c0 -2 8 -10 18 -17 15 -13 16 -12 3 4 -13 16 -21 21 -21
13z"/>
<path d="M4795 1148 c17 -6 36 -15 43 -21 7 -5 15 -7 18 -4 8 8 -51 37 -73 36
-11 0 -6 -5 12 -11z"/>
<path d="M3536 1115 c-9 -26 -7 -32 5 -12 6 10 9 21 6 23 -2 3 -7 -2 -11 -11z"/>
<path d="M4570 1110 c8 -5 26 -10 39 -10 32 0 24 6 -19 14 -25 4 -31 3 -20 -4z"/>
<path d="M4655 1103 c45 -10 47 -11 34 -35 l-12 -23 21 20 c18 18 19 21 4 33
-9 6 -27 11 -41 11 -21 -1 -22 -2 -6 -6z"/>
<path d="M4314 1032 c13 -26 32 -75 41 -107 10 -33 21 -64 26 -70 5 -5 2 15
-7 45 -17 60 -70 180 -79 180 -3 0 6 -22 19 -48z"/>
<path d="M4568 1073 c6 -2 18 -2 25 0 6 3 1 5 -13 5 -14 0 -19 -2 -12 -5z"/>
<path d="M3421 1043 c-10 -26 -10 -27 4 -9 8 11 15 23 15 28 0 15 -7 8 -19
-19z"/>
<path d="M3322 992 c-39 -84 -73 -182 -64 -182 4 0 20 37 36 83 16 45 37 99
48 120 11 22 18 41 15 43 -2 2 -18 -26 -35 -64z"/>
<path d="M4470 1055 c0 -8 61 -36 70 -33 5 2 -9 11 -30 20 -22 9 -40 15 -40
13z"/>
<path d="M3502 1001 c-7 -21 -12 -45 -11 -52 0 -8 7 8 15 35 9 26 13 50 11 52
-2 2 -9 -13 -15 -35z"/>
<path d="M4575 1013 c11 -3 31 -15 44 -26 l24 -22 -11 21 c-12 23 -33 35 -60
33 -13 -1 -12 -3 3 -6z"/>
<path d="M4471 962 c16 -26 77 -67 86 -58 4 3 1 6 -5 6 -7 0 -31 17 -54 38
-28 25 -37 30 -27 14z"/>
<path d="M5161 964 c0 -11 3 -14 6 -6 3 7 2 16 -1 19 -3 4 -6 -2 -5 -13z"/>
<path d="M3375 949 c-4 -6 -5 -12 -2 -15 2 -3 7 2 10 11 7 17 1 20 -8 4z"/>
<path d="M5653 895 c0 -27 2 -38 4 -22 2 15 2 37 0 50 -2 12 -4 0 -4 -28z"/>
<path d="M3482 910 c0 -14 2 -19 5 -12 2 6 2 18 0 25 -3 6 -5 1 -5 -13z"/>
<path d="M4578 893 c7 -3 16 -2 19 1 4 3 -2 6 -13 5 -11 0 -14 -3 -6 -6z"/>
<path d="M3346 875 c-9 -26 -7 -32 5 -12 6 10 9 21 6 23 -2 3 -7 -2 -11 -11z"/>
<path d="M5152 820 c-1 -39 5 -77 14 -95 8 -16 11 -21 8 -10 -4 11 -10 54 -14
95 l-7 75 -1 -65z"/>
<path d="M3472 845 c0 -16 2 -22 5 -12 2 9 2 23 0 30 -3 6 -5 -1 -5 -18z"/>
<path d="M4492 840 c0 -14 2 -19 5 -12 2 6 2 18 0 25 -3 6 -5 1 -5 -13z"/>
<path d="M3326 825 c-9 -26 -7 -32 5 -12 6 10 9 21 6 23 -2 3 -7 -2 -11 -11z"/>
<path d="M4986 825 c-9 -26 -7 -32 5 -12 6 10 9 21 6 23 -2 3 -7 -2 -11 -11z"/>
<path d="M4475 760 c-4 -28 -5 -53 -2 -56 2 -3 7 19 11 47 4 28 5 53 3 56 -3
2 -8 -19 -12 -47z"/>
<path d="M4556 738 c-81 -216 -106 -296 -105 -333 l1 -40 14 50 c8 28 39 126
69 219 57 176 68 230 21 104z"/>
<path d="M3462 770 c0 -19 2 -27 5 -17 2 9 2 25 0 35 -3 9 -5 1 -5 -18z"/>
<path d="M4392 740 c0 -19 2 -27 5 -17 2 9 2 25 0 35 -3 9 -5 1 -5 -18z"/>
<path d="M4397 663 c-10 -9 -9 -121 1 -127 4 -3 8 26 8 65 -1 38 -1 69 -2 69
0 0 -4 -3 -7 -7z"/>
</g>
</svg>
